<?xml version="1.0" standalone="no"?>
<!DOCTYPE svg PUBLIC "-//W3C//DTD SVG 20010904//EN"
 "http://www.w3.org/TR/2001/REC-SVG-20010904/DTD/svg10.dtd">
<svg version="1.0" xmlns="http://www.w3.org/2000/svg"
 width="2133.000000pt" height="2133.000000pt" viewBox="0 0 2133.000000 2133.000000"
 preserveAspectRatio="xMidYMid meet">

<g transform="translate(0.000000,2133.000000) scale(0.100000,-0.100000)"
fill="#000000" stroke="none">
<path d="M9505 16820 c-33 -9 -78 -26 -100 -37 -22 -11 -56 -24 -75 -28 -19
-4 -57 -20 -85 -35 -27 -15 -66 -31 -85 -35 -38 -8 -125 -50 -152 -73 -25 -21
-22 -47 7 -90 14 -20 32 -58 41 -84 15 -45 14 -50 -3 -85 -17 -35 -24 -39 -94
-59 -41 -11 -86 -28 -100 -37 -13 -10 -42 -22 -64 -27 -22 -6 -69 -23 -105
-39 -36 -15 -85 -35 -110 -43 -25 -9 -69 -25 -97 -37 -29 -11 -77 -31 -105
-42 -29 -12 -73 -28 -98 -36 -25 -8 -72 -27 -105 -43 -33 -17 -79 -35 -103
-40 -23 -6 -57 -19 -75 -30 -17 -10 -54 -24 -82 -31 -27 -6 -68 -22 -90 -35
-22 -12 -59 -27 -82 -34 -24 -6 -71 -24 -105 -40 -35 -17 -72 -30 -83 -30 -11
0 -40 -12 -64 -25 -24 -14 -65 -30 -90 -36 -25 -6 -70 -24 -98 -40 -75 -41
-96 -39 -138 19 -19 26 -37 61 -41 77 -15 69 -41 71 -110 7 -29 -26 -112 -101
-185 -167 -74 -66 -199 -182 -279 -259 -232 -224 -1339 -1328 -1603 -1600
-133 -137 -267 -274 -298 -305 -31 -31 -125 -128 -210 -216 -84 -88 -211 -219
-281 -291 -87 -90 -128 -139 -128 -154 0 -14 25 -49 67 -94 70 -73 530 -600
663 -759 41 -49 116 -135 166 -191 83 -93 352 -402 484 -558 30 -36 91 -105
135 -154 44 -49 100 -114 125 -143 25 -30 73 -86 108 -124 34 -39 62 -74 62
-78 0 -4 9 -11 21 -14 17 -6 41 12 128 97 166 163 335 324 471 450 69 63 194
179 278 257 146 135 184 160 217 147 13 -5 15 -380 15 -3313 0 -2606 3 -3313
13 -3332 6 -13 30 -31 52 -40 22 -9 52 -24 67 -34 15 -10 52 -25 82 -33 31 -8
76 -23 101 -34 25 -11 84 -27 132 -36 48 -9 108 -24 134 -34 26 -10 93 -24
150 -30 57 -6 139 -20 182 -31 42 -11 137 -24 210 -29 72 -6 206 -22 297 -37
91 -14 230 -29 310 -33 154 -8 336 -25 460 -41 70 -9 565 -31 641 -28 19 1
264 -4 544 -11 523 -12 1186 -8 1885 11 355 9 453 15 705 39 50 5 178 14 285
20 107 6 263 21 345 34 83 13 209 29 280 36 72 6 178 23 237 36 59 13 149 28
200 34 53 5 115 18 140 30 26 11 84 27 131 35 46 8 104 23 128 33 24 11 71 27
104 37 33 9 72 26 87 36 15 11 44 26 65 33 21 7 43 23 50 37 10 19 13 727 13
3332 0 2933 2 3308 15 3313 35 14 78 -18 298 -223 128 -119 261 -243 297 -276
36 -33 157 -148 269 -256 112 -108 210 -196 217 -196 8 0 84 81 170 180 86 99
285 328 443 509 157 181 334 386 394 455 59 69 151 176 205 236 54 61 170 193
257 295 145 169 267 307 345 388 16 18 30 40 30 51 0 38 -2029 2101 -2549
2592 -217 205 -453 418 -486 439 -28 17 -50 4 -60 -38 -3 -15 -22 -51 -41 -79
-40 -62 -63 -67 -128 -29 -23 13 -73 33 -113 45 -40 12 -75 26 -78 31 -3 5
-37 19 -76 30 -38 12 -84 29 -102 39 -18 11 -59 26 -91 36 -32 9 -69 23 -81
31 -12 8 -46 21 -76 30 -30 9 -74 26 -99 39 -25 12 -61 26 -80 30 -19 4 -60
20 -90 36 -30 16 -62 29 -70 29 -8 0 -44 14 -79 30 -35 17 -84 35 -110 42 -25
6 -64 21 -86 33 -22 12 -62 28 -90 35 -27 6 -63 20 -80 30 -16 10 -50 23 -75
30 -25 6 -64 22 -88 35 -24 13 -71 31 -105 40 -79 20 -102 42 -102 98 0 39 15
78 61 154 15 25 16 37 8 50 -14 23 -105 69 -174 90 -30 9 -66 23 -79 32 -14 9
-59 28 -100 42 -42 15 -103 37 -136 49 -33 13 -80 23 -105 23 -58 1 -179 -19
-255 -43 -74 -23 -165 -40 -220 -40 -22 0 -81 -9 -131 -21 -124 -28 -209 -36
-518 -50 -205 -9 -335 -8 -550 1 -308 13 -379 19 -506 48 -47 11 -124 22 -171
26 -48 3 -124 17 -170 30 -80 23 -255 57 -282 55 -6 -1 -39 -9 -72 -19z m477
-504 c61 -16 154 -29 250 -36 84 -6 203 -21 263 -32 100 -19 145 -21 495 -21
323 0 397 3 460 17 41 9 156 24 255 32 105 9 221 25 280 39 138 33 171 38 200
31 28 -7 34 -36 11 -55 -8 -6 -23 -33 -34 -59 -24 -54 -40 -71 -98 -100 -41
-21 -226 -52 -309 -52 -24 0 -81 -9 -127 -20 -140 -32 -345 -43 -740 -37 -355
5 -446 12 -578 42 -36 8 -119 19 -185 24 -202 18 -276 49 -317 135 -11 23 -27
53 -35 67 -10 15 -13 33 -9 44 5 15 14 17 64 12 31 -4 101 -18 154 -31z m-833
-106 c22 -28 43 -60 47 -72 4 -13 18 -39 31 -59 14 -21 21 -43 17 -53 -8 -21
-58 -47 -148 -75 -38 -12 -86 -31 -105 -40 -20 -10 -52 -22 -71 -26 -19 -4
-57 -18 -85 -31 -27 -13 -99 -42 -160 -65 -60 -22 -135 -52 -165 -65 -30 -13
-93 -38 -140 -55 -47 -16 -114 -42 -150 -55 -36 -14 -102 -39 -148 -55 -46
-16 -96 -36 -113 -44 -30 -16 -141 -59 -260 -100 -37 -13 -84 -32 -105 -43
-22 -11 -59 -25 -84 -32 -25 -6 -64 -23 -88 -36 -58 -34 -89 -29 -123 21 -29
41 -66 166 -55 184 11 16 129 78 173 90 24 7 71 25 105 41 35 17 70 30 79 30
9 0 40 13 70 29 30 15 70 32 89 36 19 4 61 20 92 36 32 16 65 29 74 29 9 0 51
16 94 35 43 19 84 35 92 35 8 0 45 16 84 35 38 19 77 35 87 35 10 0 43 13 75
29 31 15 75 31 97 35 21 4 64 20 95 36 30 16 70 31 89 35 19 4 61 20 95 36 34
16 70 29 80 29 11 0 38 11 60 24 23 13 66 31 96 40 30 9 69 25 85 36 17 11 36
20 42 20 7 0 30 -23 52 -50z m3763 31 c13 -11 50 -27 81 -36 32 -9 77 -28 100
-41 23 -13 50 -24 61 -24 10 0 53 -16 96 -35 43 -19 86 -35 96 -35 11 0 39
-11 62 -25 24 -14 72 -32 105 -41 34 -8 76 -24 93 -34 17 -10 58 -25 90 -35
33 -9 66 -23 76 -32 9 -8 42 -21 75 -29 32 -9 76 -26 98 -38 22 -13 63 -29 90
-35 28 -7 64 -21 81 -31 17 -10 56 -25 87 -34 30 -9 74 -27 98 -41 24 -14 53
-25 65 -25 11 0 43 -11 70 -25 27 -14 74 -33 104 -41 65 -20 176 -79 184 -99
8 -22 -29 -141 -58 -185 -32 -48 -67 -53 -124 -16 -20 14 -57 30 -82 36 -25 7
-63 21 -85 33 -22 11 -71 30 -110 43 -70 22 -150 53 -255 99 -30 13 -82 32
-115 43 -33 11 -103 37 -155 57 -52 20 -130 50 -172 66 -43 15 -95 37 -117 49
-22 11 -47 20 -56 20 -15 0 -101 34 -245 96 -30 13 -80 32 -110 43 -315 109
-342 125 -307 180 9 14 26 46 38 69 24 50 85 122 104 122 7 0 23 -9 37 -19z
m-3553 -370 c141 -150 146 -175 39 -226 -40 -19 -82 -35 -94 -35 -12 0 -45
-13 -75 -28 -30 -16 -80 -34 -111 -41 -31 -7 -62 -19 -69 -27 -6 -8 -37 -21
-68 -30 -31 -9 -76 -27 -101 -39 -25 -12 -67 -27 -95 -34 -27 -7 -64 -21 -81
-31 -17 -10 -58 -26 -90 -35 -32 -9 -77 -27 -99 -40 -22 -12 -58 -26 -80 -30
-22 -3 -59 -17 -82 -31 -23 -13 -65 -29 -95 -35 -29 -6 -66 -20 -81 -31 -16
-11 -54 -27 -85 -35 -31 -8 -76 -25 -101 -38 -26 -12 -62 -26 -81 -30 -19 -4
-55 -18 -80 -30 -25 -12 -72 -30 -105 -40 -33 -9 -71 -25 -85 -34 -14 -10 -58
-28 -98 -40 -102 -31 -117 -20 -157 117 -23 78 -14 110 35 134 56 26 268 110
376 148 28 10 65 25 83 34 17 9 68 30 113 47 46 17 117 43 158 59 41 15 99 37
128 49 161 65 237 94 377 145 50 18 100 38 113 45 13 7 46 19 73 27 27 8 77
28 111 44 35 17 69 30 77 30 8 0 44 13 80 29 195 84 200 85 250 32z m3346 30
c3 -5 31 -17 62 -26 32 -9 78 -27 103 -40 25 -12 61 -26 80 -30 19 -4 52 -16
73 -27 21 -10 75 -32 120 -49 45 -17 116 -43 157 -59 41 -15 113 -41 158 -58
46 -17 94 -38 107 -46 13 -8 45 -21 72 -27 26 -7 65 -21 87 -31 21 -11 68 -30
105 -43 126 -44 234 -85 260 -100 14 -8 55 -26 91 -39 165 -60 233 -87 253
-100 12 -7 43 -19 69 -26 53 -14 98 -50 98 -77 0 -21 -35 -135 -50 -163 -6
-11 -21 -27 -33 -35 -20 -13 -30 -12 -97 10 -41 13 -97 35 -124 49 -27 14 -59
26 -71 26 -12 0 -46 13 -76 28 -30 16 -75 34 -101 40 -26 7 -62 21 -80 31 -18
11 -55 25 -83 32 -27 7 -74 25 -103 41 -30 15 -64 28 -76 28 -12 0 -48 13 -81
29 -33 16 -76 32 -95 36 -19 4 -54 18 -77 31 -22 13 -65 30 -95 38 -29 7 -75
25 -102 40 -27 14 -58 26 -69 26 -11 0 -54 16 -97 35 -43 19 -84 35 -92 35 -9
0 -40 13 -70 29 -30 16 -72 33 -94 37 -21 4 -64 19 -94 34 -30 15 -68 30 -85
33 -49 9 -144 57 -156 78 -16 30 -3 54 73 140 56 64 74 79 98 79 16 0 31 -4
35 -9z m1133 -2457 l22 -15 0 -382 c0 -283 -3 -396 -13 -433 -22 -83 -88 -151
-268 -274 -28 -19 -66 -47 -83 -62 -43 -36 -154 -88 -187 -88 -35 0 -134 46
-184 85 -42 32 -55 42 -142 100 -74 49 -190 165 -210 211 -16 35 -18 83 -21
431 l-3 393 25 25 25 25 508 0 c444 0 511 -2 531 -16z m-2240 -1784 c77 -35
136 -95 159 -162 7 -22 23 -58 34 -80 52 -101 53 -804 1 -891 -10 -18 -26 -53
-35 -79 -39 -117 -163 -198 -301 -198 -152 0 -254 78 -322 247 -29 71 -37 108
-45 198 -11 139 -11 420 1 549 17 190 98 354 204 408 111 57 193 59 304 8z
m-939 -34 c9 -11 12 -174 12 -658 l0 -643 -22 -17 c-17 -14 -40 -18 -110 -18
-142 0 -130 -48 -129 515 1 261 -2 480 -5 485 -4 6 -36 10 -75 8 -94 -3 -100
4 -100 107 0 81 1 84 31 109 17 14 51 31 76 38 26 6 64 27 90 49 44 39 44 39
132 39 65 0 92 -4 100 -14z"/>
<path d="M13024 13383 c-124 -3 -165 -7 -174 -18 -8 -10 -12 -115 -12 -373 -1
-308 1 -364 14 -384 37 -56 112 -128 156 -149 26 -13 59 -34 73 -48 52 -51
116 -93 170 -112 51 -18 56 -18 104 -2 27 9 66 28 85 43 19 14 52 36 73 49 20
12 37 26 37 31 0 4 17 15 38 23 20 9 70 47 110 85 l74 69 0 383 c1 289 -2 384
-11 389 -14 9 -345 22 -481 19 -52 -1 -168 -4 -256 -5z m109 -162 c18 -18 20
-38 21 -380 1 -389 4 -371 -53 -371 -20 0 -48 21 -111 80 l-85 81 -3 275 c-4
285 1 327 36 338 10 3 53 3 97 1 61 -4 84 -9 98 -24z m541 19 c42 -15 48 -66
44 -334 -3 -184 -7 -248 -18 -272 -8 -17 -49 -61 -91 -98 -78 -67 -114 -81
-138 -52 -16 20 -11 720 6 737 25 25 149 37 197 19z"/>
<path d="M11424 11425 c-12 -8 -31 -38 -44 -66 -19 -45 -23 -78 -29 -228 -4
-97 -3 -250 1 -341 7 -153 10 -169 36 -220 49 -96 96 -92 144 13 23 51 23 57
23 387 0 301 -2 340 -18 382 -18 46 -57 88 -81 88 -6 0 -21 -7 -32 -15z"/>
</g>
</svg>
